<svg width="16" height="12" viewBox="0 0 16 12" fill="none" xmlns="http://www.w3.org/2000/svg">
<path d="M16 3.23999V10.5C16 10.8978 15.8314 11.2793 15.5314 11.5607C15.2313 11.842 14.8243 12 14.4 12H1.6C1.17565 12 0.768687 11.842 0.468629 11.5607C0.168571 11.2793 0 10.8978 0 10.5V3.51749L7.616 7.40999C7.73394 7.46967 7.86598 7.50062 8 7.49999C8.14087 7.49862 8.27885 7.4624 8.4 7.39499L14.4 4.11749L16 3.23999Z" fill="black"/>
<path d="M16 1.5L14.4 2.385L8 5.8875L1.6 2.625L0 1.8V1.5C0 1.10218 0.168571 0.720645 0.468629 0.43934C0.768687 0.158035 1.17565 0 1.6 0H14.4C14.8243 0 15.2313 0.158035 15.5314 0.43934C15.8314 0.720645 16 1.10218 16 1.5Z" fill="black"/>
</svg>
