<svg width="100" height="100" viewBox="0 0 100 100" fill="none" xmlns="http://www.w3.org/2000/svg">
<path d="M50 0C77.6142 0 100 22.3858 100 50C100 77.6142 77.6142 100 50 100C22.3858 100 0 77.6142 0 50C0 22.3858 22.3858 0 50 0ZM40.2168 24.3916C32.2501 19.0155 28.7199 20.0824 28.6895 20.0918C26.384 25.8004 27.8045 30.0294 28.2422 31.0771C25.5209 33.97 23.8839 37.6693 23.8838 42.1846C23.8838 45.6183 24.2786 48.6723 25.2402 51.3457L26.2422 53.6084C28.9515 58.5968 34.2748 61.8144 43.7402 62.8281C42.4026 63.7214 41.0123 65.236 40.4668 67.8105C38.636 68.676 32.8381 70.7959 29.3613 64.8926C29.3555 64.882 27.4044 61.3437 23.6836 61.0752C23.648 61.0747 20.0825 61.034 23.4375 63.3066C23.4437 63.3095 25.8498 64.4468 27.5244 68.6787C27.5244 68.6787 29.6972 75.9172 40.2041 73.6025V81.0723C40.2041 81.0723 39.9703 83.7215 37.5322 84.6055C37.5239 84.611 36.0913 85.5715 37.6367 86.1416C37.6367 86.1416 44.4336 86.6789 44.4336 81.1836V73.0146C44.43 72.9717 44.1669 69.7718 45.7559 68.6758V82.0645C45.7559 82.0645 45.6572 85.2516 43.9805 86.457C43.9715 86.4732 42.8746 88.4509 45.3145 87.9033C45.3145 87.9033 49.9905 87.2511 50.1973 81.8242L50.3047 68.2773H51.4238L51.5254 81.8242C51.7586 87.197 56.3755 87.8959 56.4258 87.9033C58.867 88.4559 57.7507 86.4618 57.748 86.457C56.0838 85.2546 55.9639 82.0645 55.9639 82.0645V68.7842C57.5551 70.0179 57.3112 72.9728 57.3076 73.0146V81.1836C57.3076 86.6759 64.0889 86.1416 64.0889 86.1416C65.645 85.5667 64.1992 84.6025 64.1992 84.6025C61.7552 83.7185 61.5273 81.0693 61.5273 81.0693V70.3721C61.5272 66.2122 59.7577 64.018 58.0225 62.8467C68.1228 61.8638 72.9565 58.6186 75.1973 53.6055C75.1514 53.688 75.993 51.3753 75.998 51.3613C76.7686 48.7064 77 45.6277 77 42.2031H76.9941V42.2002C76.9941 37.2984 75.1319 33.3489 72.1084 30.3633C72.6385 28.6726 73.3349 24.914 71.4023 20.0986C71.3676 20.0879 67.9299 19.0494 60.2207 24.1631C57.1133 23.3981 53.9233 23.0176 50.7236 23.0312C47.1669 23.0313 43.567 23.4737 40.2168 24.3916Z" fill="white"/>
</svg>
